<svg xmlns="http://www.w3.org/2000/svg" version="1.1" xmlns:xlink="http://www.w3.org/1999/xlink" xmlns:svgjs="http://svgjs.dev/svgjs" width="1000" height="1000"><g clip-path="url(#SvgjsClipPath1078)"><rect width="1000" height="1000" fill="#699cd7"></rect><g transform="matrix(2.6666666666666665,0,0,2.6666666666666665,100,313.33333333333337)"><svg xmlns="http://www.w3.org/2000/svg" version="1.1" xmlns:xlink="http://www.w3.org/1999/xlink" xmlns:svgjs="http://svgjs.dev/svgjs" width="300px" height="140px"><svg xmlns="http://www.w3.org/2000/svg" xmlns:xlink="http://www.w3.org/1999/xlink" width="300px" height="140px" viewBox="0 0 522 243" version="1.1">
<g id="surface1">
<path style=" stroke:none;fill-rule:nonzero;fill:rgb(0%,0%,0%);fill-opacity:1;" d="M 515.238281 243 C 514.425781 243 513.605469 242.855469 512.816406 242.550781 C 409.039062 202.558594 326.347656 203.757812 275.253906 211.8125 C 219.90625 220.535156 188.644531 238.949219 188.339844 239.132812 C 185.355469 240.921875 181.5 240.144531 179.4375 237.34375 C 177.371094 234.542969 177.769531 230.636719 180.351562 228.3125 C 206.914062 204.445312 230.21875 180.972656 250.296875 159.074219 C 221.179688 159.722656 194.304688 163.136719 170.640625 167.75 C 76.5625 186.101562 11.253906 226.839844 10.601562 227.25 C 8.921875 228.308594 6.863281 228.578125 4.96875 227.984375 C 3.074219 227.386719 1.539062 225.988281 0.769531 224.15625 C -1.332031 219.148438 -0.847656 212.527344 25.550781 177.457031 C 39.511719 158.914062 59.421875 134.21875 84.734375 104.0625 C 127.761719 52.800781 172.144531 2.769531 172.589844 2.269531 C 173.890625 0.800781 175.765625 -0.046875 177.722656 0 C 179.679688 0.0234375 181.535156 0.898438 182.796875 2.394531 L 228.855469 56.886719 L 248.96875 41.253906 C 251.746094 39.101562 255.707031 39.425781 258.085938 42.015625 L 305.398438 93.46875 C 332.058594 58.625 345.324219 35.910156 345.589844 35.453125 C 346.6875 33.550781 348.644531 32.296875 350.832031 32.101562 C 353.015625 31.902344 355.171875 32.789062 356.59375 34.464844 L 468.011719 166.164062 C 470.421875 169.007812 470.066406 173.269531 467.21875 175.679688 C 464.371094 178.089844 460.113281 177.734375 457.703125 174.886719 L 352.300781 50.304688 C 345.925781 60.351562 333.414062 79.183594 314.667969 103.546875 L 339.464844 130.511719 C 341.988281 133.257812 341.8125 137.53125 339.0625 140.054688 C 336.320312 142.582031 332.046875 142.398438 329.523438 139.65625 L 306.238281 114.335938 C 298.480469 124.117188 289.832031 134.621094 280.28125 145.6875 C 298.144531 146.441406 315.785156 148.261719 333.160156 151.152344 C 399.660156 162.207031 462.265625 189.003906 519.242188 230.804688 C 521.96875 232.808594 522.796875 236.519531 521.171875 239.488281 C 519.960938 241.710938 517.652344 243.003906 515.242188 243.003906 Z M 334.550781 193.808594 C 371.675781 193.808594 416.261719 198.636719 466.875 212.960938 C 397.742188 173.855469 328.992188 160.167969 268.539062 159.039062 C 252.246094 177.246094 235.308594 194.863281 217.765625 211.863281 C 232.023438 207.054688 250.3125 202.113281 272.359375 198.589844 C 289.707031 195.820312 310.578125 193.800781 334.550781 193.800781 Z M 177.523438 17.082031 C 165.050781 31.226562 131.863281 69.042969 98.746094 108.375 C 53.476562 162.140625 32.171875 190.402344 22.195312 205.222656 C 48.441406 191.472656 100.375 167.765625 167.570312 154.589844 C 199.699219 148.289062 231.5 145.191406 262.707031 145.289062 C 275.667969 130.617188 287.097656 116.820312 296.988281 104.28125 L 252.347656 55.734375 L 232.023438 71.53125 C 229.164062 73.757812 225.0625 73.328125 222.722656 70.5625 L 177.523438 17.085938 Z M 177.523438 17.082031 "></path>
</g>
</svg></svg></g></g><defs><clipPath id="SvgjsClipPath1078"><rect width="1000" height="1000" x="0" y="0" rx="500" ry="500"></rect></clipPath></defs></svg>